<mxfile host="drawio-plugin" modified="2024-02-23T20:55:59.769Z" agent="5.0 (Macintosh; Intel Mac OS X 10_15_7) AppleWebKit/537.36 (KHTML, like Gecko) Chrome/111.0.0.0 Safari/537.36" etag="mkMrKyPPhxLOUZTrRMKn" version="20.5.3" type="embed" pages="2"><diagram id="XC-l3KFPmQUoyB61InrK" name="Page-1"><mxGraphModel dx="1213" dy="416" grid="0" gridSize="10" guides="1" tooltips="1" connect="1" arrows="1" fold="1" page="1" pageScale="1" pageWidth="827" pageHeight="1169" math="0" shadow="0"><root><mxCell id="0"/><mxCell id="1" parent="0"/><mxCell id="4" value="" style="edgeStyle=none;html=1;startArrow=classic;startFill=1;flowAnimation=1;strokeColor=default;" parent="1" source="2" target="3" edge="1"><mxGeometry relative="1" as="geometry"/></mxCell><mxCell id="15" value="" style="edgeStyle=none;html=1;dashed=1;dashPattern=8 8;startArrow=classic;startFill=1;endArrow=classic;endFill=1;flowAnimation=1;strokeColor=default;" parent="1" source="2" target="14" edge="1"><mxGeometry relative="1" as="geometry"/></mxCell><mxCell id="2" value="service-discovery" style="rounded=0;whiteSpace=wrap;html=1;fillColor=#1ba1e2;fontColor=#ffffff;strokeColor=#006EAF;" parent="1" vertex="1"><mxGeometry x="370" y="70" width="120" height="60" as="geometry"/></mxCell><mxCell id="6" value="" style="edgeStyle=none;html=1;startArrow=classic;startFill=1;exitX=0;exitY=0.5;exitDx=0;exitDy=0;flowAnimation=1;strokeColor=default;" parent="1" source="3" target="5" edge="1"><mxGeometry relative="1" as="geometry"><Array as="points"><mxPoint x="210" y="210"/></Array></mxGeometry></mxCell><mxCell id="8" value="" style="edgeStyle=none;html=1;startArrow=classic;startFill=1;flowAnimation=1;strokeColor=default;" parent="1" source="3" target="7" edge="1"><mxGeometry relative="1" as="geometry"/></mxCell><mxCell id="10" value="" style="edgeStyle=none;html=1;startArrow=classic;startFill=1;flowAnimation=1;strokeColor=default;" parent="1" source="3" target="9" edge="1"><mxGeometry relative="1" as="geometry"/></mxCell><mxCell id="12" value="" style="edgeStyle=none;html=1;startArrow=classic;startFill=1;flowAnimation=1;strokeColor=default;" parent="1" source="3" target="11" edge="1"><mxGeometry relative="1" as="geometry"/></mxCell><mxCell id="3" value="circuit-breaker" style="whiteSpace=wrap;html=1;rounded=0;fillColor=#a20025;strokeColor=#6F0000;fontColor=#ffffff;treeFolding=0;treeMoving=0;enumerate=0;comic=0;container=0;snapToPoint=0;" parent="1" vertex="1"><mxGeometry x="370" y="180" width="120" height="60" as="geometry"/></mxCell><mxCell id="17" value="" style="edgeStyle=orthogonalEdgeStyle;rounded=0;orthogonalLoop=1;jettySize=auto;html=1;" edge="1" parent="1" source="5" target="16"><mxGeometry relative="1" as="geometry"><Array as="points"><mxPoint x="178" y="208"/><mxPoint x="114" y="208"/></Array></mxGeometry></mxCell><mxCell id="5" value="api-gateway" style="whiteSpace=wrap;html=1;rounded=0;fillColor=#1ba1e2;strokeColor=#006EAF;fontColor=#ffffff;" parent="1" vertex="1"><mxGeometry x="150" y="250" width="120" height="60" as="geometry"/></mxCell><mxCell id="7" value="order-service" style="whiteSpace=wrap;html=1;rounded=0;fillColor=#0050ef;strokeColor=#001DBC;fontColor=#ffffff;" parent="1" vertex="1"><mxGeometry x="200" y="360" width="120" height="60" as="geometry"/></mxCell><mxCell id="9" value="product-service" style="whiteSpace=wrap;html=1;rounded=0;fillColor=#0050ef;strokeColor=#001DBC;fontColor=#ffffff;" parent="1" vertex="1"><mxGeometry x="370" y="360" width="120" height="60" as="geometry"/></mxCell><mxCell id="11" value="payment-service" style="whiteSpace=wrap;html=1;rounded=0;fillColor=#0050ef;strokeColor=#001DBC;fontColor=#ffffff;" parent="1" vertex="1"><mxGeometry x="550" y="360" width="120" height="60" as="geometry"/></mxCell><mxCell id="13" value="" style="endArrow=classic;dashed=1;html=1;entryX=0;entryY=0.5;entryDx=0;entryDy=0;exitX=0;exitY=0.5;exitDx=0;exitDy=0;startArrow=classic;startFill=1;endFill=1;flowAnimation=1;dashPattern=8 8;strokeColor=default;" parent="1" source="5" target="7" edge="1"><mxGeometry width="50" height="50" relative="1" as="geometry"><mxPoint x="440" y="310" as="sourcePoint"/><mxPoint x="490" y="260" as="targetPoint"/><Array as="points"><mxPoint x="100" y="280"/><mxPoint x="100" y="390"/></Array></mxGeometry></mxCell><mxCell id="14" value="spring-boot-admin" style="rounded=0;whiteSpace=wrap;html=1;fillColor=#008a00;fontColor=#ffffff;strokeColor=#005700;" parent="1" vertex="1"><mxGeometry x="570" y="70" width="120" height="60" as="geometry"/></mxCell><mxCell id="16" value="okta-oauth2" style="whiteSpace=wrap;html=1;fillColor=#d80073;strokeColor=#A50040;rounded=0;fontColor=#ffffff;" vertex="1" parent="1"><mxGeometry x="54" y="106" width="120" height="60" as="geometry"/></mxCell></root></mxGraphModel></diagram><diagram id="rLZSRZBP0UH8TYipqPP0" name="Page-2"><mxGraphModel dx="1288" dy="1133" grid="1" gridSize="10" guides="1" tooltips="1" connect="1" arrows="1" fold="1" page="1" pageScale="1" pageWidth="827" pageHeight="1169" math="0" shadow="0"><root><mxCell id="0"/><mxCell id="1" parent="0"/></root></mxGraphModel></diagram></mxfile>